<svg preserveAspectRatio="none" width="100%" height="100%" overflow="visible" style="display: block;" viewBox="0 0 14 14" fill="none" xmlns="http://www.w3.org/2000/svg">
<g id="Icon">
<path id="Vector" d="M5.83333 1.16667V5.83333L7.58333 4.08333L9.33333 5.83333V1.16667" stroke="var(--stroke-0, white)" stroke-width="1.16667" stroke-linecap="round" stroke-linejoin="round"/>
<path id="Vector_2" d="M2.33333 11.375V2.625C2.33333 2.23823 2.48698 1.86729 2.76047 1.5938C3.03396 1.32031 3.40489 1.16667 3.79167 1.16667H11.0833C11.238 1.16667 11.3864 1.22812 11.4958 1.33752C11.6052 1.44692 11.6667 1.59529 11.6667 1.75V12.25C11.6667 12.4047 11.6052 12.5531 11.4958 12.6625C11.3864 12.7719 11.238 12.8333 11.0833 12.8333H3.79167C3.40489 12.8333 3.03396 12.6797 2.76047 12.4062C2.48698 12.1327 2.33333 11.7618 2.33333 11.375ZM2.33333 11.375C2.33333 10.9882 2.48698 10.6173 2.76047 10.3438C3.03396 10.0703 3.40489 9.91667 3.79167 9.91667H11.6667" stroke="var(--stroke-0, white)" stroke-width="1.16667" stroke-linecap="round" stroke-linejoin="round"/>
</g>
</svg>
